<svg width="225" height="346" viewBox="0 0 225 346" fill="none" xmlns="http://www.w3.org/2000/svg">
<path d="M31.3241 1H193.676C210.424 1 224 14.5857 224 31.3445V184.656C224 201.414 210.424 215 193.676 215H136.239C119.491 215 105.915 201.414 105.915 184.656V137.238C105.915 135.767 104.724 134.575 103.254 134.575H31.3241C14.5764 134.575 1 120.99 1 104.231V31.3445C1 14.5857 14.5764 1 31.3241 1Z" fill="#FFC900" stroke="black" stroke-width="2"/>
<path d="M136.302 231H193.698C209.875 231 223 244.198 223 260.491V345H107V260.491C107 244.198 120.125 231 136.302 231Z" fill="#FF90E8" stroke="black" stroke-width="2"/>
<path d="M73.1029 260.796H107V300H30.8661C27.0745 300 24 296.906 24 293.087V218H71.5191V259.201V260.796H73.1029Z" fill="#FF90E8" stroke="black" stroke-width="2"/>
<path d="M180 215H149V230H180V215Z" fill="#FF90E8" stroke="black" stroke-width="2"/>
<path d="M30.5 90C35.1944 90 39 86.1944 39 81.5C39 76.8056 35.1944 73 30.5 73C25.8055 73 22 76.8056 22 81.5C22 86.1944 25.8055 90 30.5 90Z" fill="white" stroke="black" stroke-width="2"/>
<path d="M91.5 90C96.1944 90 100 86.1944 100 81.5C100 76.8056 96.1944 73 91.5 73C86.8056 73 83 76.8056 83 81.5C83 86.1944 86.8056 90 91.5 90Z" fill="white" stroke="black" stroke-width="2"/>
<path d="M27.5 89C31.6421 89 35 85.866 35 82C35 78.134 31.6421 75 27.5 75C23.3578 75 20 78.134 20 82C20 85.866 23.3578 89 27.5 89Z" fill="black"/>
<path d="M88.5 89C92.6421 89 96 85.866 96 82C96 78.134 92.6421 75 88.5 75C84.3579 75 81 78.134 81 82C81 85.866 84.3579 89 88.5 89Z" fill="black"/>
<path d="M92.4279 100H29.5721C25.3901 100 22 103.358 22 107.5C22 111.642 25.3901 115 29.5721 115H92.4279C96.6098 115 100 111.642 100 107.5C100 103.358 96.6098 100 92.4279 100Z" fill="white" stroke="black" stroke-width="2"/>
<path d="M22 108H100" stroke="black" stroke-width="2" stroke-linecap="round" stroke-linejoin="round"/>
<path d="M36 100V115" stroke="black" stroke-width="2" stroke-linecap="round" stroke-linejoin="round"/>
<path d="M46 100V115" stroke="black" stroke-width="2" stroke-linecap="round" stroke-linejoin="round"/>
<path d="M56 100V115" stroke="black" stroke-width="2" stroke-linecap="round" stroke-linejoin="round"/>
<path d="M66 100V115" stroke="black" stroke-width="2" stroke-linecap="round" stroke-linejoin="round"/>
<path d="M76 100V115" stroke="black" stroke-width="2" stroke-linecap="round" stroke-linejoin="round"/>
<path d="M86 100V115" stroke="black" stroke-width="2" stroke-linecap="round" stroke-linejoin="round"/>
<path d="M59.4562 212.478V218H38.7218C36.2948 212.861 30.8679 201.587 28.5697 197.606C25.6964 192.631 21.674 182.488 25.6964 181.914C28.7722 181.475 32.4426 188.928 34.099 193.207C32.8095 189.4 28.9217 172.595 34.3152 173.494C38.8092 174.243 40.9556 187.655 41.5951 193.78C41.5951 187.656 41.403 179.618 41.5951 175.599C41.786 171.581 44.6594 167.753 47.1497 171.581C49.2949 176.48 49.3202 188.421 49.0648 193.78C49.64 190.909 51.1721 183.675 52.7042 177.704C54.6206 170.242 61.2288 169.474 61.4197 175.025C61.5727 179.464 59.3446 190.654 57.8769 195.884C64.5806 183.732 70.8057 188.228 70.9978 192.439C71.1508 195.807 63.2716 207.649 59.4562 212.478Z" fill="#FF90E8"/>
<path d="M59.4562 218V212.478C63.2716 207.649 71.1508 195.807 70.9978 192.439C70.8057 188.228 64.5806 183.732 57.8769 195.884C59.3446 190.654 61.5727 179.464 61.4197 175.025C61.2288 169.474 54.6206 170.242 52.7042 177.704C51.1721 183.675 49.64 190.909 49.0648 193.78C49.3202 188.421 49.2949 176.48 47.1497 171.581C44.6594 167.753 41.786 171.581 41.5951 175.599C41.403 179.618 41.5951 187.656 41.5951 193.78C40.9556 187.655 38.8092 174.243 34.3152 173.494C28.5697 172.537 33.3582 191.675 34.3152 193.78C32.7831 189.632 28.9136 181.455 25.6964 181.914C21.674 182.488 25.6964 192.631 28.5697 197.606C30.8679 201.587 36.2948 212.861 38.7218 218H59.4562Z" stroke="black" stroke-width="2" stroke-linecap="round" stroke-linejoin="round"/>
<path d="M49 200.234C47.6371 202.248 45.7279 207.222 49 211M34 194C35.9478 194.567 41.6755 195.36 49 194H34Z" stroke="black" stroke-width="2" stroke-linecap="round" stroke-linejoin="round"/>
</svg>
